<?xml version="1.0" encoding="utf-8" standalone="no"?>
<!DOCTYPE svg PUBLIC "-//W3C//DTD SVG 1.1//EN"
  "http://www.w3.org/Graphics/SVG/1.1/DTD/svg11.dtd">
<svg xmlns:xlink="http://www.w3.org/1999/xlink" width="460.8pt" height="345.6pt" viewBox="0 0 460.8 345.6" xmlns="http://www.w3.org/2000/svg" version="1.1">
 <metadata>
  <rdf:RDF xmlns:dc="http://purl.org/dc/elements/1.1/" xmlns:cc="http://creativecommons.org/ns#" xmlns:rdf="http://www.w3.org/1999/02/22-rdf-syntax-ns#">
   <cc:Work>
    <dc:type rdf:resource="http://purl.org/dc/dcmitype/StillImage"/>
    <dc:date>2025-07-23T16:14:43.248073</dc:date>
    <dc:format>image/svg+xml</dc:format>
    <dc:creator>
     <cc:Agent>
      <dc:title>Matplotlib v3.10.3, https://matplotlib.org/</dc:title>
     </cc:Agent>
    </dc:creator>
   </cc:Work>
  </rdf:RDF>
 </metadata>
 <defs>
  <style type="text/css">*{stroke-linejoin: round; stroke-linecap: butt}</style>
 </defs>
 <g id="figure_1">
  <g id="patch_1">
   <path d="M 0 345.6 
L 460.8 345.6 
L 460.8 0 
L 0 0 
z
" style="fill: #ffffff"/>
  </g>
  <g id="axes_1">
   <g id="patch_2">
    <path d="M 57.6 307.584 
L 414.72 307.584 
L 414.72 41.472 
L 57.6 41.472 
z
" style="fill: #ffffff"/>
   </g>
   <g id="FillBetweenPolyCollection_1">
    <defs>
     <path id="m854dd65126" d="M 73.832727 -204.427597 
L 73.832727 -65.313162 
L 76.026339 -65.217033 
L 78.219951 -66.020302 
L 80.413563 -68.176723 
L 82.607174 -68.504013 
L 84.800786 -72.789168 
L 86.994398 -77.92104 
L 89.18801 -84.890933 
L 91.381622 -80.361227 
L 93.575233 -73.450978 
L 95.768845 -72.118293 
L 97.962457 -67.021999 
L 100.156069 -64.935276 
L 102.349681 -63.08448 
L 104.543292 -64.217568 
L 106.736904 -66.802519 
L 108.930516 -63.314197 
L 111.124128 -65.907865 
L 113.31774 -64.964367 
L 115.511351 -64.230253 
L 117.704963 -62.593292 
L 119.898575 -59.344585 
L 122.092187 -61.7902 
L 124.285799 -67.518732 
L 126.47941 -60.583822 
L 128.673022 -62.770134 
L 130.866634 -61.717738 
L 133.060246 -65.310174 
L 135.253857 -67.955959 
L 137.447469 -72.808177 
L 139.641081 -76.205055 
L 141.834693 -86.566454 
L 144.028305 -87.17633 
L 146.221916 -82.957752 
L 148.415528 -82.076902 
L 150.60914 -84.651421 
L 152.802752 -89.440788 
L 154.996364 -89.350131 
L 157.189975 -87.317147 
L 159.383587 -80.144635 
L 161.577199 -75.53041 
L 163.770811 -76.976126 
L 165.964423 -71.570514 
L 168.158034 -68.584692 
L 170.351646 -70.324123 
L 172.545258 -75.367883 
L 174.73887 -70.425564 
L 176.932482 -72.535934 
L 179.126093 -79.731874 
L 181.319705 -84.970949 
L 183.513317 -74.507147 
L 185.706929 -87.219098 
L 187.900541 -83.282141 
L 190.094152 -93.689944 
L 192.287764 -93.656476 
L 194.481376 -82.846335 
L 196.674988 -87.530351 
L 198.8686 -84.998999 
L 201.062211 -87.27725 
L 203.255823 -98.442084 
L 205.449435 -114.168146 
L 207.643047 -102.482563 
L 209.836658 -82.563422 
L 212.03027 -78.27097 
L 214.223882 -74.212348 
L 216.417494 -71.217535 
L 218.611106 -68.996112 
L 220.804717 -72.479686 
L 222.998329 -71.893699 
L 225.191941 -68.355754 
L 227.385553 -68.068266 
L 229.579165 -65.382409 
L 231.772776 -65.021358 
L 233.966388 -66.203186 
L 236.16 -69.063794 
L 238.353612 -72.071333 
L 240.547224 -74.079634 
L 242.740835 -75.500435 
L 244.934447 -80.525347 
L 247.128059 -90.394737 
L 249.321671 -110.360916 
L 251.515283 -120.301509 
L 253.708894 -116.051122 
L 255.902506 -109.28763 
L 258.096118 -114.956189 
L 260.28973 -103.660941 
L 262.483342 -97.508676 
L 264.676953 -92.536107 
L 266.870565 -81.889977 
L 269.064177 -76.501381 
L 271.257789 -74.739268 
L 273.4514 -75.070383 
L 275.645012 -76.017394 
L 277.838624 -71.357373 
L 280.032236 -74.774372 
L 282.225848 -75.469631 
L 284.419459 -71.568611 
L 286.613071 -77.316734 
L 288.806683 -84.461655 
L 291.000295 -76.884179 
L 293.193907 -76.497805 
L 295.387518 -68.366466 
L 297.58113 -63.260079 
L 299.774742 -58.924813 
L 301.968354 -61.849738 
L 304.161966 -59.721072 
L 306.355577 -63.438308 
L 308.549189 -64.864885 
L 310.742801 -71.717835 
L 312.936413 -79.902037 
L 315.130025 -79.593096 
L 317.323636 -86.268646 
L 319.517248 -80.351264 
L 321.71086 -80.344549 
L 323.904472 -85.203964 
L 326.098084 -81.16567 
L 328.291695 -85.13642 
L 330.485307 -85.47492 
L 332.678919 -83.918795 
L 334.872531 -82.648336 
L 337.066143 -76.827741 
L 339.259754 -74.493105 
L 341.453366 -77.39909 
L 343.646978 -74.662501 
L 345.84059 -69.885339 
L 348.034201 -73.242711 
L 350.227813 -78.675835 
L 352.421425 -74.158741 
L 354.615037 -71.823974 
L 356.808649 -68.603599 
L 359.00226 -70.197502 
L 361.195872 -67.178647 
L 363.389484 -62.424724 
L 365.583096 -61.172001 
L 367.776708 -63.324514 
L 369.970319 -61.313491 
L 372.163931 -63.053085 
L 374.357543 -67.681081 
L 376.551155 -72.208169 
L 378.744767 -72.781791 
L 380.938378 -69.030831 
L 383.13199 -71.938118 
L 385.325602 -79.571963 
L 387.519214 -77.99652 
L 389.712826 -74.917512 
L 391.906437 -82.733192 
L 394.100049 -97.616125 
L 396.293661 -92.074989 
L 398.487273 -89.714419 
L 398.487273 -137.669023 
L 398.487273 -137.669023 
L 396.293661 -143.60327 
L 394.100049 -151.926076 
L 391.906437 -152.436416 
L 389.712826 -141.643312 
L 387.519214 -151.934221 
L 385.325602 -165.577065 
L 383.13199 -159.668245 
L 380.938378 -157.247352 
L 378.744767 -178.752001 
L 376.551155 -185.798486 
L 374.357543 -177.926987 
L 372.163931 -170.83429 
L 369.970319 -165.045945 
L 367.776708 -155.385818 
L 365.583096 -168.691935 
L 363.389484 -166.667056 
L 361.195872 -175.466796 
L 359.00226 -177.03931 
L 356.808649 -172.161055 
L 354.615037 -161.453716 
L 352.421425 -169.257102 
L 350.227813 -162.79565 
L 348.034201 -151.098021 
L 345.84059 -152.722972 
L 343.646978 -158.761349 
L 341.453366 -153.573471 
L 339.259754 -151.931524 
L 337.066143 -156.971006 
L 334.872531 -161.135808 
L 332.678919 -156.268289 
L 330.485307 -162.307032 
L 328.291695 -176.074492 
L 326.098084 -188.25113 
L 323.904472 -206.704462 
L 321.71086 -206.557721 
L 319.517248 -220.589198 
L 317.323636 -225.436012 
L 315.130025 -200.324056 
L 312.936413 -187.559074 
L 310.742801 -181.2055 
L 308.549189 -176.898593 
L 306.355577 -167.437478 
L 304.161966 -169.87027 
L 301.968354 -180.63924 
L 299.774742 -181.912078 
L 297.58113 -195.272972 
L 295.387518 -208.28178 
L 293.193907 -222.344227 
L 291.000295 -212.757725 
L 288.806683 -221.71695 
L 286.613071 -195.139588 
L 284.419459 -190.439698 
L 282.225848 -201.537686 
L 280.032236 -183.493795 
L 277.838624 -175.081799 
L 275.645012 -182.806686 
L 273.4514 -185.488477 
L 271.257789 -175.489937 
L 269.064177 -182.492726 
L 266.870565 -193.953431 
L 264.676953 -190.648979 
L 262.483342 -182.335229 
L 260.28973 -198.64151 
L 258.096118 -212.478846 
L 255.902506 -223.830214 
L 253.708894 -239.919231 
L 251.515283 -250.297912 
L 249.321671 -226.656132 
L 247.128059 -220.797576 
L 244.934447 -206.777054 
L 242.740835 -211.488738 
L 240.547224 -203.766818 
L 238.353612 -202.358119 
L 236.16 -209.774768 
L 233.966388 -211.579813 
L 231.772776 -222.153581 
L 229.579165 -238.615904 
L 227.385553 -257.153741 
L 225.191941 -262.510286 
L 222.998329 -263.891558 
L 220.804717 -262.290278 
L 218.611106 -251.492836 
L 216.417494 -237.942254 
L 214.223882 -226.165052 
L 212.03027 -221.983995 
L 209.836658 -215.498806 
L 207.643047 -234.751733 
L 205.449435 -255.048491 
L 203.255823 -261.187097 
L 201.062211 -250.338861 
L 198.8686 -256.382545 
L 196.674988 -266.524082 
L 194.481376 -281.156394 
L 192.287764 -292.032 
L 190.094152 -284.532739 
L 187.900541 -276.081816 
L 185.706929 -261.025284 
L 183.513317 -257.718343 
L 181.319705 -288.934989 
L 179.126093 -268.00949 
L 176.932482 -247.985846 
L 174.73887 -274.806505 
L 172.545258 -262.487319 
L 170.351646 -255.127065 
L 168.158034 -224.605109 
L 165.964423 -241.203973 
L 163.770811 -234.112529 
L 161.577199 -216.406971 
L 159.383587 -208.642733 
L 157.189975 -228.236829 
L 154.996364 -231.206258 
L 152.802752 -247.996813 
L 150.60914 -248.297266 
L 148.415528 -240.768856 
L 146.221916 -237.319893 
L 144.028305 -249.932569 
L 141.834693 -237.946244 
L 139.641081 -227.150816 
L 137.447469 -212.36933 
L 135.253857 -199.026573 
L 133.060246 -191.447983 
L 130.866634 -191.702594 
L 128.673022 -206.622628 
L 126.47941 -204.521255 
L 124.285799 -226.50555 
L 122.092187 -211.830039 
L 119.898575 -219.277073 
L 117.704963 -199.052467 
L 115.511351 -221.716918 
L 113.31774 -228.370183 
L 111.124128 -203.912597 
L 108.930516 -205.693334 
L 106.736904 -192.196306 
L 104.543292 -181.401522 
L 102.349681 -167.243046 
L 100.156069 -153.846811 
L 97.962457 -158.012328 
L 95.768845 -159.029589 
L 93.575233 -173.694895 
L 91.381622 -180.554345 
L 89.18801 -185.622407 
L 86.994398 -162.487445 
L 84.800786 -152.291835 
L 82.607174 -146.016986 
L 80.413563 -153.573323 
L 78.219951 -172.598498 
L 76.026339 -185.248214 
L 73.832727 -204.427597 
z
" style="stroke: #fc030b; stroke-opacity: 0.2"/>
    </defs>
    <g clip-path="url(#p02e170b378)">
     <use xlink:href="#m854dd65126" x="0" y="345.6" style="fill: #fc030b; fill-opacity: 0.2; stroke: #fc030b; stroke-opacity: 0.2"/>
    </g>
   </g>
   <g id="FillBetweenPolyCollection_2">
    <defs>
     <path id="m5ce58bcf23" d="M 73.832727 -104.700406 
L 73.832727 -70.543513 
L 76.026339 -65.949968 
L 78.219951 -68.416988 
L 80.413563 -65.908058 
L 82.607174 -61.179837 
L 84.800786 -61.412736 
L 86.994398 -61.089309 
L 89.18801 -65.110875 
L 91.381622 -62.244143 
L 93.575233 -61.886696 
L 95.768845 -55.193355 
L 97.962457 -54.231314 
L 100.156069 -57.474971 
L 102.349681 -58.018552 
L 104.543292 -63.552883 
L 106.736904 -67.121273 
L 108.930516 -64.079003 
L 111.124128 -61.159449 
L 113.31774 -66.652837 
L 115.511351 -66.495739 
L 117.704963 -61.584743 
L 119.898575 -63.062335 
L 122.092187 -58.526917 
L 124.285799 -60.428332 
L 126.47941 -55.503697 
L 128.673022 -54.152193 
L 130.866634 -52.851905 
L 133.060246 -52.968055 
L 135.253857 -58.823486 
L 137.447469 -62.819013 
L 139.641081 -68.39749 
L 141.834693 -77.127958 
L 144.028305 -77.973598 
L 146.221916 -72.699857 
L 148.415528 -74.263595 
L 150.60914 -79.169155 
L 152.802752 -82.876486 
L 154.996364 -80.117376 
L 157.189975 -78.586243 
L 159.383587 -72.360226 
L 161.577199 -72.367835 
L 163.770811 -76.817934 
L 165.964423 -76.049691 
L 168.158034 -73.99803 
L 170.351646 -77.026666 
L 172.545258 -83.935704 
L 174.73887 -82.819156 
L 176.932482 -78.078393 
L 179.126093 -80.919981 
L 181.319705 -81.507476 
L 183.513317 -75.093799 
L 185.706929 -76.033118 
L 187.900541 -76.871529 
L 190.094152 -82.680579 
L 192.287764 -83.491127 
L 194.481376 -77.839904 
L 196.674988 -73.803287 
L 198.8686 -75.071931 
L 201.062211 -67.319045 
L 203.255823 -70.195385 
L 205.449435 -76.592262 
L 207.643047 -74.807579 
L 209.836658 -64.214611 
L 212.03027 -60.899765 
L 214.223882 -59.611468 
L 216.417494 -63.377446 
L 218.611106 -63.98466 
L 220.804717 -70.044895 
L 222.998329 -74.293868 
L 225.191941 -75.339386 
L 227.385553 -66.958583 
L 229.579165 -61.894467 
L 231.772776 -59.08979 
L 233.966388 -55.337045 
L 236.16 -56.0586 
L 238.353612 -57.042396 
L 240.547224 -58.510718 
L 242.740835 -60.423667 
L 244.934447 -63.95932 
L 247.128059 -72.085697 
L 249.321671 -81.456037 
L 251.515283 -90.481954 
L 253.708894 -89.881241 
L 255.902506 -86.490501 
L 258.096118 -91.979254 
L 260.28973 -81.673568 
L 262.483342 -76.477967 
L 264.676953 -73.259499 
L 266.870565 -67.127956 
L 269.064177 -61.202509 
L 271.257789 -61.233734 
L 273.4514 -63.045742 
L 275.645012 -62.383196 
L 277.838624 -58.034656 
L 280.032236 -57.926483 
L 282.225848 -59.160957 
L 284.419459 -56.982217 
L 286.613071 -58.388353 
L 288.806683 -63.582955 
L 291.000295 -60.665101 
L 293.193907 -66.734709 
L 295.387518 -59.763281 
L 297.58113 -56.799687 
L 299.774742 -50.676431 
L 301.968354 -50.80631 
L 304.161966 -50.112 
L 306.355577 -51.876476 
L 308.549189 -55.039834 
L 310.742801 -62.757735 
L 312.936413 -71.958498 
L 315.130025 -77.559266 
L 317.323636 -83.73091 
L 319.517248 -75.859515 
L 321.71086 -71.321514 
L 323.904472 -69.621648 
L 326.098084 -68.051428 
L 328.291695 -67.012043 
L 330.485307 -68.417715 
L 332.678919 -68.752607 
L 334.872531 -65.067783 
L 337.066143 -59.592726 
L 339.259754 -60.911367 
L 341.453366 -59.250938 
L 343.646978 -57.19986 
L 345.84059 -54.635056 
L 348.034201 -57.086238 
L 350.227813 -58.344108 
L 352.421425 -57.042575 
L 354.615037 -56.169215 
L 356.808649 -56.786946 
L 359.00226 -57.893996 
L 361.195872 -55.981742 
L 363.389484 -52.630789 
L 365.583096 -51.76732 
L 367.776708 -51.337295 
L 369.970319 -54.53531 
L 372.163931 -60.637453 
L 374.357543 -66.649397 
L 376.551155 -74.444571 
L 378.744767 -80.245185 
L 380.938378 -71.06566 
L 383.13199 -72.023242 
L 385.325602 -83.020905 
L 387.519214 -79.593729 
L 389.712826 -71.740372 
L 391.906437 -77.52187 
L 394.100049 -86.136315 
L 396.293661 -83.362131 
L 398.487273 -76.575878 
L 398.487273 -118.82181 
L 398.487273 -118.82181 
L 396.293661 -128.677612 
L 394.100049 -138.370482 
L 391.906437 -121.072684 
L 389.712826 -115.680008 
L 387.519214 -127.154669 
L 385.325602 -124.13431 
L 383.13199 -111.534553 
L 380.938378 -110.414778 
L 378.744767 -118.081494 
L 376.551155 -111.601416 
L 374.357543 -100.231134 
L 372.163931 -91.294436 
L 369.970319 -85.462931 
L 367.776708 -83.571223 
L 365.583096 -83.508999 
L 363.389484 -86.992804 
L 361.195872 -94.323936 
L 359.00226 -98.967971 
L 356.808649 -95.604451 
L 354.615037 -99.066028 
L 352.421425 -101.890895 
L 350.227813 -106.699962 
L 348.034201 -99.512996 
L 345.84059 -99.091992 
L 343.646978 -103.220282 
L 341.453366 -108.02277 
L 339.259754 -103.644218 
L 337.066143 -108.115671 
L 334.872531 -116.70672 
L 332.678919 -120.410635 
L 330.485307 -120.96311 
L 328.291695 -130.978526 
L 326.098084 -137.13069 
L 323.904472 -151.091961 
L 321.71086 -154.661371 
L 319.517248 -155.62006 
L 317.323636 -146.730514 
L 315.130025 -128.150365 
L 312.936413 -111.727157 
L 310.742801 -102.433676 
L 308.549189 -91.162875 
L 306.355577 -86.466876 
L 304.161966 -81.893452 
L 301.968354 -82.009701 
L 299.774742 -86.552706 
L 297.58113 -92.418536 
L 295.387518 -100.901313 
L 293.193907 -109.914178 
L 291.000295 -104.389065 
L 288.806683 -109.690215 
L 286.613071 -104.075339 
L 284.419459 -100.254682 
L 282.225848 -109.710097 
L 280.032236 -107.682199 
L 277.838624 -102.217667 
L 275.645012 -107.146833 
L 273.4514 -114.042108 
L 271.257789 -110.264936 
L 269.064177 -110.180888 
L 266.870565 -124.011658 
L 264.676953 -137.420027 
L 262.483342 -136.504229 
L 260.28973 -145.85826 
L 258.096118 -159.823159 
L 255.902506 -160.34001 
L 253.708894 -158.872253 
L 251.515283 -159.126898 
L 249.321671 -141.056738 
L 247.128059 -128.055766 
L 244.934447 -115.105445 
L 242.740835 -104.415595 
L 240.547224 -101.757509 
L 238.353612 -96.582462 
L 236.16 -96.118139 
L 233.966388 -91.687142 
L 231.772776 -95.922715 
L 229.579165 -98.436539 
L 227.385553 -104.402709 
L 225.191941 -114.012124 
L 222.998329 -112.547267 
L 220.804717 -114.017739 
L 218.611106 -106.927246 
L 216.417494 -108.194209 
L 214.223882 -104.145922 
L 212.03027 -110.991284 
L 209.836658 -113.344173 
L 207.643047 -131.225174 
L 205.449435 -133.772728 
L 203.255823 -128.866338 
L 201.062211 -122.042064 
L 198.8686 -128.676317 
L 196.674988 -125.759842 
L 194.481376 -126.76708 
L 192.287764 -137.429482 
L 190.094152 -133.571782 
L 187.900541 -126.597819 
L 185.706929 -118.797091 
L 183.513317 -114.95085 
L 181.319705 -122.190553 
L 179.126093 -118.486424 
L 176.932482 -112.247294 
L 174.73887 -114.293776 
L 172.545258 -117.966574 
L 170.351646 -110.244843 
L 168.158034 -105.135654 
L 165.964423 -109.71556 
L 163.770811 -113.906794 
L 161.577199 -108.022978 
L 159.383587 -108.237945 
L 157.189975 -120.263667 
L 154.996364 -120.148323 
L 152.802752 -120.662146 
L 150.60914 -118.689206 
L 148.415528 -115.905631 
L 146.221916 -119.762598 
L 144.028305 -134.471361 
L 141.834693 -125.364797 
L 139.641081 -114.492592 
L 137.447469 -102.204025 
L 135.253857 -92.096539 
L 133.060246 -89.018293 
L 130.866634 -83.728789 
L 128.673022 -87.180665 
L 126.47941 -90.151254 
L 124.285799 -96.166369 
L 122.092187 -92.592723 
L 119.898575 -96.805404 
L 117.704963 -94.564313 
L 115.511351 -95.737467 
L 113.31774 -94.46354 
L 111.124128 -89.054418 
L 108.930516 -92.110365 
L 106.736904 -96.232025 
L 104.543292 -95.396907 
L 102.349681 -89.59695 
L 100.156069 -88.708549 
L 97.962457 -87.269032 
L 95.768845 -91.078589 
L 93.575233 -97.503439 
L 91.381622 -103.331191 
L 89.18801 -105.315906 
L 86.994398 -99.396095 
L 84.800786 -95.991351 
L 82.607174 -95.138266 
L 80.413563 -101.227609 
L 78.219951 -101.399064 
L 76.026339 -102.612223 
L 73.832727 -104.700406 
z
" style="stroke: #0303fc; stroke-opacity: 0.2"/>
    </defs>
    <g clip-path="url(#p02e170b378)">
     <use xlink:href="#m5ce58bcf23" x="0" y="345.6" style="fill: #0303fc; fill-opacity: 0.2; stroke: #0303fc; stroke-opacity: 0.2"/>
    </g>
   </g>
   <g id="FillBetweenPolyCollection_3">
    <defs>
     <path id="m81e564c4d9" d="M 73.832727 -120.10272 
L 73.832727 -74.139224 
L 76.026339 -71.958443 
L 78.219951 -72.516007 
L 80.413563 -76.355233 
L 82.607174 -76.907514 
L 84.800786 -72.423738 
L 86.994398 -66.53738 
L 89.18801 -62.927908 
L 91.381622 -57.949002 
L 93.575233 -63.577435 
L 95.768845 -64.971488 
L 97.962457 -70.662237 
L 100.156069 -69.74578 
L 102.349681 -67.380347 
L 104.543292 -70.968901 
L 106.736904 -80.893431 
L 108.930516 -87.093295 
L 111.124128 -90.29041 
L 113.31774 -97.205963 
L 115.511351 -89.039974 
L 117.704963 -85.104704 
L 119.898575 -77.217708 
L 122.092187 -80.30959 
L 124.285799 -86.552426 
L 126.47941 -90.200332 
L 128.673022 -95.637893 
L 130.866634 -91.685676 
L 133.060246 -96.933531 
L 135.253857 -102.003453 
L 137.447469 -107.157035 
L 139.641081 -118.247165 
L 141.834693 -135.892303 
L 144.028305 -144.881346 
L 146.221916 -149.718307 
L 148.415528 -129.8977 
L 150.60914 -129.850691 
L 152.802752 -144.979958 
L 154.996364 -124.865502 
L 157.189975 -108.633614 
L 159.383587 -105.123477 
L 161.577199 -115.409868 
L 163.770811 -120.132123 
L 165.964423 -120.527472 
L 168.158034 -115.674447 
L 170.351646 -120.871954 
L 172.545258 -124.005839 
L 174.73887 -120.054897 
L 176.932482 -121.719854 
L 179.126093 -130.87286 
L 181.319705 -131.860439 
L 183.513317 -132.110551 
L 185.706929 -138.578141 
L 187.900541 -154.768344 
L 190.094152 -182.9631 
L 192.287764 -178.970967 
L 194.481376 -141.151069 
L 196.674988 -147.148223 
L 198.8686 -157.042709 
L 201.062211 -155.554765 
L 203.255823 -163.275922 
L 205.449435 -159.446022 
L 207.643047 -142.504498 
L 209.836658 -125.336539 
L 212.03027 -125.278089 
L 214.223882 -120.761048 
L 216.417494 -127.355178 
L 218.611106 -125.388916 
L 220.804717 -128.005716 
L 222.998329 -135.889906 
L 225.191941 -132.211775 
L 227.385553 -116.988727 
L 229.579165 -107.655234 
L 231.772776 -110.990101 
L 233.966388 -103.62706 
L 236.16 -107.013291 
L 238.353612 -102.12744 
L 240.547224 -109.452757 
L 242.740835 -113.810008 
L 244.934447 -121.132284 
L 247.128059 -137.331287 
L 249.321671 -161.661756 
L 251.515283 -171.294913 
L 253.708894 -146.411936 
L 255.902506 -143.977623 
L 258.096118 -140.86916 
L 260.28973 -124.576069 
L 262.483342 -109.032595 
L 264.676953 -110.907871 
L 266.870565 -104.26702 
L 269.064177 -98.78712 
L 271.257789 -92.018469 
L 273.4514 -101.095758 
L 275.645012 -99.868252 
L 277.838624 -88.813546 
L 280.032236 -94.780512 
L 282.225848 -110.768346 
L 284.419459 -102.710127 
L 286.613071 -97.546816 
L 288.806683 -97.023371 
L 291.000295 -85.711973 
L 293.193907 -79.620059 
L 295.387518 -76.694594 
L 297.58113 -75.642529 
L 299.774742 -76.293096 
L 301.968354 -79.191911 
L 304.161966 -74.69281 
L 306.355577 -76.488775 
L 308.549189 -76.79351 
L 310.742801 -87.591574 
L 312.936413 -97.403933 
L 315.130025 -106.686435 
L 317.323636 -114.126636 
L 319.517248 -117.798184 
L 321.71086 -114.737147 
L 323.904472 -114.999495 
L 326.098084 -102.088368 
L 328.291695 -101.230921 
L 330.485307 -96.181366 
L 332.678919 -101.355264 
L 334.872531 -91.808786 
L 337.066143 -81.47156 
L 339.259754 -81.212453 
L 341.453366 -83.54287 
L 343.646978 -79.392769 
L 345.84059 -77.362545 
L 348.034201 -74.800993 
L 350.227813 -73.219164 
L 352.421425 -82.197443 
L 354.615037 -79.092946 
L 356.808649 -71.418 
L 359.00226 -67.63038 
L 361.195872 -68.396808 
L 363.389484 -66.861634 
L 365.583096 -70.627347 
L 367.776708 -68.951244 
L 369.970319 -67.544091 
L 372.163931 -73.731027 
L 374.357543 -83.38571 
L 376.551155 -94.526522 
L 378.744767 -107.407948 
L 380.938378 -93.334149 
L 383.13199 -91.379824 
L 385.325602 -106.971157 
L 387.519214 -106.848951 
L 389.712826 -96.972378 
L 391.906437 -104.313568 
L 394.100049 -112.392641 
L 396.293661 -100.393337 
L 398.487273 -92.518239 
L 398.487273 -132.065862 
L 398.487273 -132.065862 
L 396.293661 -148.413231 
L 394.100049 -149.270027 
L 391.906437 -130.779699 
L 389.712826 -131.371464 
L 387.519214 -147.304653 
L 385.325602 -142.127786 
L 383.13199 -126.971659 
L 380.938378 -137.106772 
L 378.744767 -149.148731 
L 376.551155 -142.125197 
L 374.357543 -130.899976 
L 372.163931 -116.287761 
L 369.970319 -108.510622 
L 367.776708 -96.709999 
L 365.583096 -96.312515 
L 363.389484 -98.899859 
L 361.195872 -106.534241 
L 359.00226 -108.867624 
L 356.808649 -110.704503 
L 354.615037 -114.817813 
L 352.421425 -119.315155 
L 350.227813 -124.842723 
L 348.034201 -117.264622 
L 345.84059 -115.856126 
L 343.646978 -127.014101 
L 341.453366 -130.864152 
L 339.259754 -127.038887 
L 337.066143 -135.329159 
L 334.872531 -142.465419 
L 332.678919 -147.457421 
L 330.485307 -146.859209 
L 328.291695 -160.777031 
L 326.098084 -170.670554 
L 323.904472 -185.194022 
L 321.71086 -204.349223 
L 319.517248 -205.180939 
L 317.323636 -186.428362 
L 315.130025 -173.734086 
L 312.936413 -155.664235 
L 310.742801 -150.22413 
L 308.549189 -128.080085 
L 306.355577 -118.668468 
L 304.161966 -109.44555 
L 301.968354 -114.017274 
L 299.774742 -117.726627 
L 297.58113 -132.103468 
L 295.387518 -148.688745 
L 293.193907 -161.571698 
L 291.000295 -154.247698 
L 288.806683 -166.249416 
L 286.613071 -162.069765 
L 284.419459 -157.733581 
L 282.225848 -155.478105 
L 280.032236 -148.341988 
L 277.838624 -142.232802 
L 275.645012 -153.181175 
L 273.4514 -151.507098 
L 271.257789 -147.915049 
L 269.064177 -161.725114 
L 266.870565 -169.312534 
L 264.676953 -178.259843 
L 262.483342 -181.86057 
L 260.28973 -198.854248 
L 258.096118 -216.192256 
L 255.902506 -229.764011 
L 253.708894 -249.233609 
L 251.515283 -249.308872 
L 249.321671 -229.13334 
L 247.128059 -212.500871 
L 244.934447 -186.068518 
L 242.740835 -171.633665 
L 240.547224 -166.837636 
L 238.353612 -156.695386 
L 236.16 -159.172818 
L 233.966388 -155.203521 
L 231.772776 -159.653246 
L 229.579165 -158.391264 
L 227.385553 -164.856952 
L 225.191941 -172.968831 
L 222.998329 -177.414629 
L 220.804717 -174.334808 
L 218.611106 -169.440929 
L 216.417494 -174.277538 
L 214.223882 -176.363339 
L 212.03027 -179.012221 
L 209.836658 -186.817577 
L 207.643047 -205.861979 
L 205.449435 -227.939636 
L 203.255823 -232.986665 
L 201.062211 -207.377341 
L 198.8686 -214.659456 
L 196.674988 -197.212756 
L 194.481376 -211.508669 
L 192.287764 -249.053442 
L 190.094152 -248.710657 
L 187.900541 -231.200354 
L 185.706929 -228.95775 
L 183.513317 -223.189129 
L 181.319705 -218.802278 
L 179.126093 -209.289196 
L 176.932482 -185.243127 
L 174.73887 -173.242323 
L 172.545258 -175.609705 
L 170.351646 -174.035648 
L 168.158034 -158.276993 
L 165.964423 -155.647785 
L 163.770811 -169.549997 
L 161.577199 -163.487593 
L 159.383587 -149.480161 
L 157.189975 -159.754652 
L 154.996364 -171.160295 
L 152.802752 -179.360995 
L 150.60914 -187.427043 
L 148.415528 -187.348996 
L 146.221916 -188.029809 
L 144.028305 -199.627714 
L 141.834693 -195.926766 
L 139.641081 -180.454203 
L 137.447469 -167.304925 
L 135.253857 -154.382552 
L 133.060246 -146.176571 
L 130.866634 -136.361223 
L 128.673022 -137.148792 
L 126.47941 -138.137545 
L 124.285799 -143.097608 
L 122.092187 -127.434433 
L 119.898575 -124.132203 
L 117.704963 -125.384686 
L 115.511351 -123.889303 
L 113.31774 -124.381146 
L 111.124128 -111.750217 
L 108.930516 -114.034134 
L 106.736904 -114.642707 
L 104.543292 -107.738343 
L 102.349681 -96.583562 
L 100.156069 -88.956302 
L 97.962457 -87.203352 
L 95.768845 -88.372232 
L 93.575233 -99.104906 
L 91.381622 -110.519017 
L 89.18801 -113.872864 
L 86.994398 -97.457906 
L 84.800786 -90.180105 
L 82.607174 -86.22563 
L 80.413563 -91.77795 
L 78.219951 -99.157031 
L 76.026339 -110.063044 
L 73.832727 -120.10272 
z
" style="stroke: #eb8c34; stroke-opacity: 0.2"/>
    </defs>
    <g clip-path="url(#p02e170b378)">
     <use xlink:href="#m81e564c4d9" x="0" y="345.6" style="fill: #eb8c34; fill-opacity: 0.2; stroke: #eb8c34; stroke-opacity: 0.2"/>
    </g>
   </g>
   <g id="matplotlib.axis_1">
    <g id="xtick_1">
     <g id="line2d_1">
      <defs>
       <path id="ma4b3217e69" d="M 0 0 
L 0 3.5 
" style="stroke: #000000; stroke-width: 0.8"/>
      </defs>
      <g>
       <use xlink:href="#ma4b3217e69" x="71.639115" y="307.584" style="stroke: #000000; stroke-width: 0.8"/>
      </g>
     </g>
     <g id="text_1">
      <!-- 0 -->
      <g transform="translate(68.457865 322.182437) scale(0.1 -0.1)">
       <defs>
        <path id="DejaVuSans-30" d="M 2034 4250 
Q 1547 4250 1301 3770 
Q 1056 3291 1056 2328 
Q 1056 1369 1301 889 
Q 1547 409 2034 409 
Q 2525 409 2770 889 
Q 3016 1369 3016 2328 
Q 3016 3291 2770 3770 
Q 2525 4250 2034 4250 
z
M 2034 4750 
Q 2819 4750 3233 4129 
Q 3647 3509 3647 2328 
Q 3647 1150 3233 529 
Q 2819 -91 2034 -91 
Q 1250 -91 836 529 
Q 422 1150 422 2328 
Q 422 3509 836 4129 
Q 1250 4750 2034 4750 
z
" transform="scale(0.015625)"/>
       </defs>
       <use xlink:href="#DejaVuSans-30"/>
      </g>
     </g>
    </g>
    <g id="xtick_2">
     <g id="line2d_2">
      <g>
       <use xlink:href="#ma4b3217e69" x="115.511351" y="307.584" style="stroke: #000000; stroke-width: 0.8"/>
      </g>
     </g>
     <g id="text_2">
      <!-- 20 -->
      <g transform="translate(109.148851 322.182437) scale(0.1 -0.1)">
       <defs>
        <path id="DejaVuSans-32" d="M 1228 531 
L 3431 531 
L 3431 0 
L 469 0 
L 469 531 
Q 828 903 1448 1529 
Q 2069 2156 2228 2338 
Q 2531 2678 2651 2914 
Q 2772 3150 2772 3378 
Q 2772 3750 2511 3984 
Q 2250 4219 1831 4219 
Q 1534 4219 1204 4116 
Q 875 4013 500 3803 
L 500 4441 
Q 881 4594 1212 4672 
Q 1544 4750 1819 4750 
Q 2544 4750 2975 4387 
Q 3406 4025 3406 3419 
Q 3406 3131 3298 2873 
Q 3191 2616 2906 2266 
Q 2828 2175 2409 1742 
Q 1991 1309 1228 531 
z
" transform="scale(0.015625)"/>
       </defs>
       <use xlink:href="#DejaVuSans-32"/>
       <use xlink:href="#DejaVuSans-30" transform="translate(63.623047 0)"/>
      </g>
     </g>
    </g>
    <g id="xtick_3">
     <g id="line2d_3">
      <g>
       <use xlink:href="#ma4b3217e69" x="159.383587" y="307.584" style="stroke: #000000; stroke-width: 0.8"/>
      </g>
     </g>
     <g id="text_3">
      <!-- 40 -->
      <g transform="translate(153.021087 322.182437) scale(0.1 -0.1)">
       <defs>
        <path id="DejaVuSans-34" d="M 2419 4116 
L 825 1625 
L 2419 1625 
L 2419 4116 
z
M 2253 4666 
L 3047 4666 
L 3047 1625 
L 3713 1625 
L 3713 1100 
L 3047 1100 
L 3047 0 
L 2419 0 
L 2419 1100 
L 313 1100 
L 313 1709 
L 2253 4666 
z
" transform="scale(0.015625)"/>
       </defs>
       <use xlink:href="#DejaVuSans-34"/>
       <use xlink:href="#DejaVuSans-30" transform="translate(63.623047 0)"/>
      </g>
     </g>
    </g>
    <g id="xtick_4">
     <g id="line2d_4">
      <g>
       <use xlink:href="#ma4b3217e69" x="203.255823" y="307.584" style="stroke: #000000; stroke-width: 0.8"/>
      </g>
     </g>
     <g id="text_4">
      <!-- 60 -->
      <g transform="translate(196.893323 322.182437) scale(0.1 -0.1)">
       <defs>
        <path id="DejaVuSans-36" d="M 2113 2584 
Q 1688 2584 1439 2293 
Q 1191 2003 1191 1497 
Q 1191 994 1439 701 
Q 1688 409 2113 409 
Q 2538 409 2786 701 
Q 3034 994 3034 1497 
Q 3034 2003 2786 2293 
Q 2538 2584 2113 2584 
z
M 3366 4563 
L 3366 3988 
Q 3128 4100 2886 4159 
Q 2644 4219 2406 4219 
Q 1781 4219 1451 3797 
Q 1122 3375 1075 2522 
Q 1259 2794 1537 2939 
Q 1816 3084 2150 3084 
Q 2853 3084 3261 2657 
Q 3669 2231 3669 1497 
Q 3669 778 3244 343 
Q 2819 -91 2113 -91 
Q 1303 -91 875 529 
Q 447 1150 447 2328 
Q 447 3434 972 4092 
Q 1497 4750 2381 4750 
Q 2619 4750 2861 4703 
Q 3103 4656 3366 4563 
z
" transform="scale(0.015625)"/>
       </defs>
       <use xlink:href="#DejaVuSans-36"/>
       <use xlink:href="#DejaVuSans-30" transform="translate(63.623047 0)"/>
      </g>
     </g>
    </g>
    <g id="xtick_5">
     <g id="line2d_5">
      <g>
       <use xlink:href="#ma4b3217e69" x="247.128059" y="307.584" style="stroke: #000000; stroke-width: 0.8"/>
      </g>
     </g>
     <g id="text_5">
      <!-- 80 -->
      <g transform="translate(240.765559 322.182437) scale(0.1 -0.1)">
       <defs>
        <path id="DejaVuSans-38" d="M 2034 2216 
Q 1584 2216 1326 1975 
Q 1069 1734 1069 1313 
Q 1069 891 1326 650 
Q 1584 409 2034 409 
Q 2484 409 2743 651 
Q 3003 894 3003 1313 
Q 3003 1734 2745 1975 
Q 2488 2216 2034 2216 
z
M 1403 2484 
Q 997 2584 770 2862 
Q 544 3141 544 3541 
Q 544 4100 942 4425 
Q 1341 4750 2034 4750 
Q 2731 4750 3128 4425 
Q 3525 4100 3525 3541 
Q 3525 3141 3298 2862 
Q 3072 2584 2669 2484 
Q 3125 2378 3379 2068 
Q 3634 1759 3634 1313 
Q 3634 634 3220 271 
Q 2806 -91 2034 -91 
Q 1263 -91 848 271 
Q 434 634 434 1313 
Q 434 1759 690 2068 
Q 947 2378 1403 2484 
z
M 1172 3481 
Q 1172 3119 1398 2916 
Q 1625 2713 2034 2713 
Q 2441 2713 2670 2916 
Q 2900 3119 2900 3481 
Q 2900 3844 2670 4047 
Q 2441 4250 2034 4250 
Q 1625 4250 1398 4047 
Q 1172 3844 1172 3481 
z
" transform="scale(0.015625)"/>
       </defs>
       <use xlink:href="#DejaVuSans-38"/>
       <use xlink:href="#DejaVuSans-30" transform="translate(63.623047 0)"/>
      </g>
     </g>
    </g>
    <g id="xtick_6">
     <g id="line2d_6">
      <g>
       <use xlink:href="#ma4b3217e69" x="291.000295" y="307.584" style="stroke: #000000; stroke-width: 0.8"/>
      </g>
     </g>
     <g id="text_6">
      <!-- 100 -->
      <g transform="translate(281.456545 322.182437) scale(0.1 -0.1)">
       <defs>
        <path id="DejaVuSans-31" d="M 794 531 
L 1825 531 
L 1825 4091 
L 703 3866 
L 703 4441 
L 1819 4666 
L 2450 4666 
L 2450 531 
L 3481 531 
L 3481 0 
L 794 0 
L 794 531 
z
" transform="scale(0.015625)"/>
       </defs>
       <use xlink:href="#DejaVuSans-31"/>
       <use xlink:href="#DejaVuSans-30" transform="translate(63.623047 0)"/>
       <use xlink:href="#DejaVuSans-30" transform="translate(127.246094 0)"/>
      </g>
     </g>
    </g>
    <g id="xtick_7">
     <g id="line2d_7">
      <g>
       <use xlink:href="#ma4b3217e69" x="334.872531" y="307.584" style="stroke: #000000; stroke-width: 0.8"/>
      </g>
     </g>
     <g id="text_7">
      <!-- 120 -->
      <g transform="translate(325.328781 322.182437) scale(0.1 -0.1)">
       <use xlink:href="#DejaVuSans-31"/>
       <use xlink:href="#DejaVuSans-32" transform="translate(63.623047 0)"/>
       <use xlink:href="#DejaVuSans-30" transform="translate(127.246094 0)"/>
      </g>
     </g>
    </g>
    <g id="xtick_8">
     <g id="line2d_8">
      <g>
       <use xlink:href="#ma4b3217e69" x="378.744767" y="307.584" style="stroke: #000000; stroke-width: 0.8"/>
      </g>
     </g>
     <g id="text_8">
      <!-- 140 -->
      <g transform="translate(369.201017 322.182437) scale(0.1 -0.1)">
       <use xlink:href="#DejaVuSans-31"/>
       <use xlink:href="#DejaVuSans-34" transform="translate(63.623047 0)"/>
       <use xlink:href="#DejaVuSans-30" transform="translate(127.246094 0)"/>
      </g>
     </g>
    </g>
    <g id="text_9">
     <!-- residue -->
     <g transform="translate(215.083438 335.860562) scale(0.1 -0.1)">
      <defs>
       <path id="DejaVuSans-Bold-72" d="M 3138 2547 
Q 2991 2616 2845 2648 
Q 2700 2681 2553 2681 
Q 2122 2681 1889 2404 
Q 1656 2128 1656 1613 
L 1656 0 
L 538 0 
L 538 3500 
L 1656 3500 
L 1656 2925 
Q 1872 3269 2151 3426 
Q 2431 3584 2822 3584 
Q 2878 3584 2943 3579 
Q 3009 3575 3134 3559 
L 3138 2547 
z
" transform="scale(0.015625)"/>
       <path id="DejaVuSans-Bold-65" d="M 4031 1759 
L 4031 1441 
L 1416 1441 
Q 1456 1047 1700 850 
Q 1944 653 2381 653 
Q 2734 653 3104 758 
Q 3475 863 3866 1075 
L 3866 213 
Q 3469 63 3072 -14 
Q 2675 -91 2278 -91 
Q 1328 -91 801 392 
Q 275 875 275 1747 
Q 275 2603 792 3093 
Q 1309 3584 2216 3584 
Q 3041 3584 3536 3087 
Q 4031 2591 4031 1759 
z
M 2881 2131 
Q 2881 2450 2695 2645 
Q 2509 2841 2209 2841 
Q 1884 2841 1681 2658 
Q 1478 2475 1428 2131 
L 2881 2131 
z
" transform="scale(0.015625)"/>
       <path id="DejaVuSans-Bold-73" d="M 3272 3391 
L 3272 2541 
Q 2913 2691 2578 2766 
Q 2244 2841 1947 2841 
Q 1628 2841 1473 2761 
Q 1319 2681 1319 2516 
Q 1319 2381 1436 2309 
Q 1553 2238 1856 2203 
L 2053 2175 
Q 2913 2066 3209 1816 
Q 3506 1566 3506 1031 
Q 3506 472 3093 190 
Q 2681 -91 1863 -91 
Q 1516 -91 1145 -36 
Q 775 19 384 128 
L 384 978 
Q 719 816 1070 734 
Q 1422 653 1784 653 
Q 2113 653 2278 743 
Q 2444 834 2444 1013 
Q 2444 1163 2330 1236 
Q 2216 1309 1875 1350 
L 1678 1375 
Q 931 1469 631 1722 
Q 331 1975 331 2491 
Q 331 3047 712 3315 
Q 1094 3584 1881 3584 
Q 2191 3584 2531 3537 
Q 2872 3491 3272 3391 
z
" transform="scale(0.015625)"/>
       <path id="DejaVuSans-Bold-69" d="M 538 3500 
L 1656 3500 
L 1656 0 
L 538 0 
L 538 3500 
z
M 538 4863 
L 1656 4863 
L 1656 3950 
L 538 3950 
L 538 4863 
z
" transform="scale(0.015625)"/>
       <path id="DejaVuSans-Bold-64" d="M 2919 2988 
L 2919 4863 
L 4044 4863 
L 4044 0 
L 2919 0 
L 2919 506 
Q 2688 197 2409 53 
Q 2131 -91 1766 -91 
Q 1119 -91 703 423 
Q 288 938 288 1747 
Q 288 2556 703 3070 
Q 1119 3584 1766 3584 
Q 2128 3584 2408 3439 
Q 2688 3294 2919 2988 
z
M 2181 722 
Q 2541 722 2730 984 
Q 2919 1247 2919 1747 
Q 2919 2247 2730 2509 
Q 2541 2772 2181 2772 
Q 1825 2772 1636 2509 
Q 1447 2247 1447 1747 
Q 1447 1247 1636 984 
Q 1825 722 2181 722 
z
" transform="scale(0.015625)"/>
       <path id="DejaVuSans-Bold-75" d="M 500 1363 
L 500 3500 
L 1625 3500 
L 1625 3150 
Q 1625 2866 1622 2436 
Q 1619 2006 1619 1863 
Q 1619 1441 1641 1255 
Q 1663 1069 1716 984 
Q 1784 875 1895 815 
Q 2006 756 2150 756 
Q 2500 756 2700 1025 
Q 2900 1294 2900 1772 
L 2900 3500 
L 4019 3500 
L 4019 0 
L 2900 0 
L 2900 506 
Q 2647 200 2364 54 
Q 2081 -91 1741 -91 
Q 1134 -91 817 281 
Q 500 653 500 1363 
z
" transform="scale(0.015625)"/>
      </defs>
      <use xlink:href="#DejaVuSans-Bold-72"/>
      <use xlink:href="#DejaVuSans-Bold-65" transform="translate(49.316406 0)"/>
      <use xlink:href="#DejaVuSans-Bold-73" transform="translate(117.138672 0)"/>
      <use xlink:href="#DejaVuSans-Bold-69" transform="translate(176.660156 0)"/>
      <use xlink:href="#DejaVuSans-Bold-64" transform="translate(210.9375 0)"/>
      <use xlink:href="#DejaVuSans-Bold-75" transform="translate(282.519531 0)"/>
      <use xlink:href="#DejaVuSans-Bold-65" transform="translate(353.710938 0)"/>
     </g>
    </g>
   </g>
   <g id="matplotlib.axis_2">
    <g id="ytick_1">
     <g id="line2d_9">
      <defs>
       <path id="mbb431ff94e" d="M 0 0 
L -3.5 0 
" style="stroke: #000000; stroke-width: 0.8"/>
      </defs>
      <g>
       <use xlink:href="#mbb431ff94e" x="57.6" y="285.343174" style="stroke: #000000; stroke-width: 0.8"/>
      </g>
     </g>
     <g id="text_10">
      <!-- 2 -->
      <g transform="translate(44.2375 289.142393) scale(0.1 -0.1)">
       <use xlink:href="#DejaVuSans-32"/>
      </g>
     </g>
    </g>
    <g id="ytick_2">
     <g id="line2d_10">
      <g>
       <use xlink:href="#mbb431ff94e" x="57.6" y="248.051991" style="stroke: #000000; stroke-width: 0.8"/>
      </g>
     </g>
     <g id="text_11">
      <!-- 3 -->
      <g transform="translate(44.2375 251.85121) scale(0.1 -0.1)">
       <defs>
        <path id="DejaVuSans-33" d="M 2597 2516 
Q 3050 2419 3304 2112 
Q 3559 1806 3559 1356 
Q 3559 666 3084 287 
Q 2609 -91 1734 -91 
Q 1441 -91 1130 -33 
Q 819 25 488 141 
L 488 750 
Q 750 597 1062 519 
Q 1375 441 1716 441 
Q 2309 441 2620 675 
Q 2931 909 2931 1356 
Q 2931 1769 2642 2001 
Q 2353 2234 1838 2234 
L 1294 2234 
L 1294 2753 
L 1863 2753 
Q 2328 2753 2575 2939 
Q 2822 3125 2822 3475 
Q 2822 3834 2567 4026 
Q 2313 4219 1838 4219 
Q 1578 4219 1281 4162 
Q 984 4106 628 3988 
L 628 4550 
Q 988 4650 1302 4700 
Q 1616 4750 1894 4750 
Q 2613 4750 3031 4423 
Q 3450 4097 3450 3541 
Q 3450 3153 3228 2886 
Q 3006 2619 2597 2516 
z
" transform="scale(0.015625)"/>
       </defs>
       <use xlink:href="#DejaVuSans-33"/>
      </g>
     </g>
    </g>
    <g id="ytick_3">
     <g id="line2d_11">
      <g>
       <use xlink:href="#mbb431ff94e" x="57.6" y="210.760808" style="stroke: #000000; stroke-width: 0.8"/>
      </g>
     </g>
     <g id="text_12">
      <!-- 4 -->
      <g transform="translate(44.2375 214.560027) scale(0.1 -0.1)">
       <use xlink:href="#DejaVuSans-34"/>
      </g>
     </g>
    </g>
    <g id="ytick_4">
     <g id="line2d_12">
      <g>
       <use xlink:href="#mbb431ff94e" x="57.6" y="173.469625" style="stroke: #000000; stroke-width: 0.8"/>
      </g>
     </g>
     <g id="text_13">
      <!-- 5 -->
      <g transform="translate(44.2375 177.268843) scale(0.1 -0.1)">
       <defs>
        <path id="DejaVuSans-35" d="M 691 4666 
L 3169 4666 
L 3169 4134 
L 1269 4134 
L 1269 2991 
Q 1406 3038 1543 3061 
Q 1681 3084 1819 3084 
Q 2600 3084 3056 2656 
Q 3513 2228 3513 1497 
Q 3513 744 3044 326 
Q 2575 -91 1722 -91 
Q 1428 -91 1123 -41 
Q 819 9 494 109 
L 494 744 
Q 775 591 1075 516 
Q 1375 441 1709 441 
Q 2250 441 2565 725 
Q 2881 1009 2881 1497 
Q 2881 1984 2565 2268 
Q 2250 2553 1709 2553 
Q 1456 2553 1204 2497 
Q 953 2441 691 2322 
L 691 4666 
z
" transform="scale(0.015625)"/>
       </defs>
       <use xlink:href="#DejaVuSans-35"/>
      </g>
     </g>
    </g>
    <g id="ytick_5">
     <g id="line2d_13">
      <g>
       <use xlink:href="#mbb431ff94e" x="57.6" y="136.178441" style="stroke: #000000; stroke-width: 0.8"/>
      </g>
     </g>
     <g id="text_14">
      <!-- 6 -->
      <g transform="translate(44.2375 139.97766) scale(0.1 -0.1)">
       <use xlink:href="#DejaVuSans-36"/>
      </g>
     </g>
    </g>
    <g id="ytick_6">
     <g id="line2d_14">
      <g>
       <use xlink:href="#mbb431ff94e" x="57.6" y="98.887258" style="stroke: #000000; stroke-width: 0.8"/>
      </g>
     </g>
     <g id="text_15">
      <!-- 7 -->
      <g transform="translate(44.2375 102.686477) scale(0.1 -0.1)">
       <defs>
        <path id="DejaVuSans-37" d="M 525 4666 
L 3525 4666 
L 3525 4397 
L 1831 0 
L 1172 0 
L 2766 4134 
L 525 4134 
L 525 4666 
z
" transform="scale(0.015625)"/>
       </defs>
       <use xlink:href="#DejaVuSans-37"/>
      </g>
     </g>
    </g>
    <g id="ytick_7">
     <g id="line2d_15">
      <g>
       <use xlink:href="#mbb431ff94e" x="57.6" y="61.596075" style="stroke: #000000; stroke-width: 0.8"/>
      </g>
     </g>
     <g id="text_16">
      <!-- 8 -->
      <g transform="translate(44.2375 65.395294) scale(0.1 -0.1)">
       <use xlink:href="#DejaVuSans-38"/>
      </g>
     </g>
    </g>
    <g id="text_17">
     <!-- RMSD (Å) -->
     <g transform="translate(38.157812 201.285812) rotate(-90) scale(0.1 -0.1)">
      <defs>
       <path id="DejaVuSans-Bold-52" d="M 2297 2597 
Q 2675 2597 2839 2737 
Q 3003 2878 3003 3200 
Q 3003 3519 2839 3656 
Q 2675 3794 2297 3794 
L 1791 3794 
L 1791 2597 
L 2297 2597 
z
M 1791 1766 
L 1791 0 
L 588 0 
L 588 4666 
L 2425 4666 
Q 3347 4666 3776 4356 
Q 4206 4047 4206 3378 
Q 4206 2916 3982 2619 
Q 3759 2322 3309 2181 
Q 3556 2125 3751 1926 
Q 3947 1728 4147 1325 
L 4800 0 
L 3519 0 
L 2950 1159 
Q 2778 1509 2601 1637 
Q 2425 1766 2131 1766 
L 1791 1766 
z
" transform="scale(0.015625)"/>
       <path id="DejaVuSans-Bold-4d" d="M 588 4666 
L 2119 4666 
L 3181 2169 
L 4250 4666 
L 5778 4666 
L 5778 0 
L 4641 0 
L 4641 3413 
L 3566 897 
L 2803 897 
L 1728 3413 
L 1728 0 
L 588 0 
L 588 4666 
z
" transform="scale(0.015625)"/>
       <path id="DejaVuSans-Bold-53" d="M 3834 4519 
L 3834 3531 
Q 3450 3703 3084 3790 
Q 2719 3878 2394 3878 
Q 1963 3878 1756 3759 
Q 1550 3641 1550 3391 
Q 1550 3203 1689 3098 
Q 1828 2994 2194 2919 
L 2706 2816 
Q 3484 2659 3812 2340 
Q 4141 2022 4141 1434 
Q 4141 663 3683 286 
Q 3225 -91 2284 -91 
Q 1841 -91 1394 -6 
Q 947 78 500 244 
L 500 1259 
Q 947 1022 1364 901 
Q 1781 781 2169 781 
Q 2563 781 2772 912 
Q 2981 1044 2981 1288 
Q 2981 1506 2839 1625 
Q 2697 1744 2272 1838 
L 1806 1941 
Q 1106 2091 782 2419 
Q 459 2747 459 3303 
Q 459 4000 909 4375 
Q 1359 4750 2203 4750 
Q 2588 4750 2994 4692 
Q 3400 4634 3834 4519 
z
" transform="scale(0.015625)"/>
       <path id="DejaVuSans-Bold-44" d="M 1791 3756 
L 1791 909 
L 2222 909 
Q 2959 909 3348 1275 
Q 3738 1641 3738 2338 
Q 3738 3031 3350 3393 
Q 2963 3756 2222 3756 
L 1791 3756 
z
M 588 4666 
L 1856 4666 
Q 2919 4666 3439 4514 
Q 3959 4363 4331 4000 
Q 4659 3684 4818 3271 
Q 4978 2859 4978 2338 
Q 4978 1809 4818 1395 
Q 4659 981 4331 666 
Q 3956 303 3431 151 
Q 2906 0 1856 0 
L 588 0 
L 588 4666 
z
" transform="scale(0.015625)"/>
       <path id="DejaVuSans-Bold-20" transform="scale(0.015625)"/>
       <path id="DejaVuSans-Bold-28" d="M 2413 -844 
L 1484 -844 
Q 1006 -72 778 623 
Q 550 1319 550 2003 
Q 550 2688 779 3389 
Q 1009 4091 1484 4856 
L 2413 4856 
Q 2013 4116 1813 3408 
Q 1613 2700 1613 2009 
Q 1613 1319 1811 609 
Q 2009 -100 2413 -844 
z
" transform="scale(0.015625)"/>
       <path id="DejaVuSans-Bold-212b" d="M 3225 4575 
L 4922 0 
L 3713 0 
L 3419 850 
L 1538 850 
L 1241 0 
L 31 0 
L 1728 4575 
Q 1656 4681 1622 4798 
Q 1588 4916 1588 5050 
Q 1588 5416 1848 5678 
Q 2109 5941 2478 5941 
Q 2841 5941 3103 5678 
Q 3366 5416 3366 5050 
Q 3366 4903 3331 4784 
Q 3297 4666 3225 4575 
z
M 2069 5050 
Q 2069 4881 2189 4761 
Q 2309 4641 2478 4641 
Q 2647 4641 2767 4761 
Q 2888 4881 2888 5050 
Q 2888 5219 2766 5339 
Q 2644 5459 2478 5459 
Q 2309 5459 2189 5339 
Q 2069 5219 2069 5050 
z
M 1838 1716 
L 3116 1716 
L 2478 3572 
L 1838 1716 
z
" transform="scale(0.015625)"/>
       <path id="DejaVuSans-Bold-29" d="M 513 -844 
Q 913 -100 1113 609 
Q 1313 1319 1313 2009 
Q 1313 2700 1113 3408 
Q 913 4116 513 4856 
L 1441 4856 
Q 1916 4091 2145 3389 
Q 2375 2688 2375 2003 
Q 2375 1319 2147 623 
Q 1919 -72 1441 -844 
L 513 -844 
z
" transform="scale(0.015625)"/>
      </defs>
      <use xlink:href="#DejaVuSans-Bold-52"/>
      <use xlink:href="#DejaVuSans-Bold-4d" transform="translate(77.001953 0)"/>
      <use xlink:href="#DejaVuSans-Bold-53" transform="translate(176.513672 0)"/>
      <use xlink:href="#DejaVuSans-Bold-44" transform="translate(248.535156 0)"/>
      <use xlink:href="#DejaVuSans-Bold-20" transform="translate(331.542969 0)"/>
      <use xlink:href="#DejaVuSans-Bold-28" transform="translate(366.357422 0)"/>
      <use xlink:href="#DejaVuSans-Bold-212b" transform="translate(412.060547 0)"/>
      <use xlink:href="#DejaVuSans-Bold-29" transform="translate(489.453125 0)"/>
     </g>
    </g>
   </g>
   <g id="line2d_16">
    <path d="M 73.832727 217.535663 
L 76.026339 226.962157 
L 78.219951 231.16702 
L 80.413563 236.766836 
L 82.607174 238.496645 
L 84.800786 234.853618 
L 86.994398 230.627889 
L 89.18801 221.699056 
L 91.381622 222.04625 
L 93.575233 226.369191 
L 95.768845 233.593972 
L 97.962457 237.724512 
L 100.156069 239.620417 
L 102.349681 236.871336 
L 104.543292 228.982611 
L 106.736904 222.587769 
L 108.930516 218.531907 
L 111.124128 217.78911 
L 113.31774 210.43446 
L 115.511351 212.934384 
L 117.704963 216.599589 
L 119.898575 214.932754 
L 122.092187 216.588358 
L 124.285799 210.462834 
L 126.47941 217.233758 
L 128.673022 218.518521 
L 130.866634 223.892277 
L 135.253857 218.917155 
L 137.447469 212.144488 
L 141.834693 193.927251 
L 144.028305 188.415623 
L 146.221916 194.40557 
L 148.415528 194.307932 
L 150.60914 189.515838 
L 152.802752 187.776638 
L 154.996364 193.402054 
L 157.189975 197.574846 
L 159.383587 208.852601 
L 161.577199 206.871907 
L 163.770811 199.152769 
L 165.964423 201.473533 
L 168.158034 203.23593 
L 170.351646 193.72172 
L 172.545258 185.776412 
L 176.932482 187.937206 
L 179.126093 178.486274 
L 181.319705 176.224712 
L 183.513317 187.58241 
L 185.706929 182.275683 
L 190.094152 167.53649 
L 192.287764 161.966756 
L 194.481376 173.352257 
L 196.674988 178.830345 
L 198.8686 184.711386 
L 201.062211 184.453497 
L 203.255823 174.085707 
L 205.449435 167.810398 
L 207.643047 181.121469 
L 209.836658 202.081003 
L 212.03027 205.169804 
L 214.223882 205.052342 
L 216.417494 198.770399 
L 218.611106 196.798679 
L 220.804717 189.133001 
L 225.191941 186.414885 
L 227.385553 196.35907 
L 229.579165 204.02652 
L 231.772776 208.274281 
L 233.966388 215.028604 
L 236.16 213.347193 
L 238.353612 216.708514 
L 240.547224 215.642686 
L 242.740835 214.73641 
L 244.934447 207.95278 
L 247.128059 198.125606 
L 249.321671 182.184291 
L 251.515283 168.025956 
L 253.708894 171.337913 
L 255.902506 186.585622 
L 258.096118 187.182657 
L 260.28973 197.614965 
L 262.483342 209.057249 
L 264.676953 209.709555 
L 266.870565 214.17879 
L 269.064177 222.462209 
L 271.257789 224.586232 
L 273.4514 220.870281 
L 275.645012 224.073376 
L 277.838624 227.632489 
L 282.225848 214.098258 
L 284.419459 218.362144 
L 286.613071 211.852107 
L 288.806683 200.088132 
L 291.000295 208.716544 
L 293.193907 205.737327 
L 295.387518 214.694282 
L 297.58113 221.198517 
L 299.774742 228.553556 
L 301.968354 230.334334 
L 304.161966 235.23779 
L 306.355577 235.568835 
L 308.549189 233.077767 
L 310.742801 225.773793 
L 312.936413 217.185742 
L 315.130025 211.241975 
L 317.323636 199.407308 
L 319.517248 201.228602 
L 321.71086 207.535124 
L 323.904472 208.161825 
L 326.098084 217.07304 
L 328.291695 219.58904 
L 330.485307 224.274342 
L 332.678919 227.262501 
L 334.872531 227.285652 
L 337.066143 232.996756 
L 339.259754 236.536467 
L 341.453366 232.901461 
L 343.646978 231.994204 
L 345.84059 236.625757 
L 348.034201 236.033002 
L 350.227813 227.892204 
L 352.421425 228.662035 
L 354.615037 232.10612 
L 356.808649 231.003037 
L 359.00226 226.869612 
L 361.195872 229.633247 
L 363.389484 234.341816 
L 365.583096 235.926437 
L 367.776708 239.466889 
L 369.970319 237.961332 
L 372.163931 235.862453 
L 374.357543 231.285049 
L 376.551155 225.048573 
L 378.744767 225.35042 
L 380.938378 235.857625 
L 383.13199 234.509172 
L 385.325602 227.116846 
L 387.519214 232.396192 
L 389.712826 238.615047 
L 391.906437 229.912939 
L 394.100049 222.569756 
L 396.293661 229.119436 
L 398.487273 233.458694 
L 398.487273 233.458694 
" clip-path="url(#p02e170b378)" style="fill: none; stroke: #fc030b; stroke-width: 1.5; stroke-linecap: square"/>
   </g>
   <g id="line2d_17">
    <path d="M 73.832727 258.681557 
L 76.026339 261.862179 
L 78.219951 261.209676 
L 80.413563 262.725952 
L 82.607174 267.955785 
L 84.800786 267.220267 
L 86.994398 267.160843 
L 89.18801 260.807071 
L 91.381622 263.07188 
L 93.575233 266.905473 
L 95.768845 273.272071 
L 97.962457 275.605564 
L 100.156069 273.530347 
L 102.349681 272.555964 
L 104.543292 267.103428 
L 106.736904 266.036359 
L 108.930516 268.02508 
L 111.124128 271.879053 
L 113.31774 265.883329 
L 115.511351 265.209539 
L 117.704963 268.67723 
L 119.898575 266.454587 
L 122.092187 270.481845 
L 124.285799 268.78039 
L 126.47941 273.566717 
L 128.673022 276.025724 
L 130.866634 278.109124 
L 133.060246 276.162266 
L 135.253857 271.498674 
L 137.447469 266.383266 
L 139.641081 257.093067 
L 141.834693 246.404822 
L 144.028305 245.375943 
L 146.221916 252.83331 
L 148.415528 254.010959 
L 150.60914 250.923938 
L 152.802752 247.466374 
L 154.996364 247.948968 
L 157.189975 249.424339 
L 159.383587 257.692075 
L 161.577199 258.667518 
L 163.770811 253.528717 
L 165.964423 254.960841 
L 168.158034 258.314596 
L 170.351646 254.141386 
L 172.545258 248.069675 
L 174.73887 249.191337 
L 176.932482 252.456447 
L 179.126093 247.814432 
L 181.319705 246.540143 
L 183.513317 252.211127 
L 185.706929 251.027888 
L 187.900541 246.957068 
L 190.094152 239.589847 
L 192.287764 237.152784 
L 194.481376 245.329251 
L 196.674988 246.285876 
L 198.8686 246.291715 
L 201.062211 251.97215 
L 203.255823 249.630572 
L 205.449435 242.177594 
L 207.643047 244.862526 
L 209.836658 257.649866 
L 212.03027 261.875326 
L 214.223882 264.962633 
L 216.417494 261.944231 
L 218.611106 261.62321 
L 220.804717 255.155215 
L 222.998329 254.29693 
L 225.191941 252.636067 
L 227.385553 261.384887 
L 229.579165 266.746974 
L 233.966388 273.84504 
L 236.16 271.117969 
L 238.353612 270.377542 
L 240.547224 267.31126 
L 242.740835 265.077232 
L 244.934447 257.948256 
L 247.128059 247.799404 
L 251.515283 223.842079 
L 253.708894 223.646186 
L 255.902506 227.851157 
L 258.096118 223.525933 
L 260.28973 234.313278 
L 262.483342 241.638474 
L 264.676953 243.249378 
L 266.870565 252.451381 
L 269.064177 262.254478 
L 271.257789 263.303624 
L 273.4514 259.630643 
L 275.645012 263.055973 
L 277.838624 267.615592 
L 280.032236 263.50554 
L 282.225848 262.297159 
L 284.419459 267.858141 
L 286.613071 265.947254 
L 288.806683 261.348317 
L 291.000295 264.708822 
L 293.193907 259.567885 
L 295.387518 266.129448 
L 297.58113 271.558719 
L 299.774742 277.365157 
L 301.968354 279.495322 
L 304.161966 280.400572 
L 306.355577 278.40336 
L 308.549189 273.933727 
L 310.742801 265.189258 
L 317.323636 233.831204 
L 319.517248 237.139902 
L 321.71086 241.267665 
L 323.904472 241.749542 
L 326.098084 248.145335 
L 328.291695 248.63793 
L 330.485307 252.454737 
L 332.678919 253.085598 
L 334.872531 256.911425 
L 337.066143 264.152431 
L 339.259754 266.395374 
L 341.453366 264.159236 
L 343.646978 266.936962 
L 345.84059 271.147315 
L 348.034201 267.979514 
L 350.227813 264.218003 
L 352.421425 268.021823 
L 354.615037 269.201903 
L 356.808649 270.577882 
L 359.00226 267.460517 
L 361.195872 270.599096 
L 363.389484 276.188698 
L 365.583096 278.79229 
L 367.776708 278.575466 
L 369.970319 277.008757 
L 372.163931 270.637595 
L 374.357543 263.035104 
L 376.551155 252.952568 
L 378.744767 247.007269 
L 380.938378 255.237663 
L 383.13199 256.151783 
L 385.325602 244.109945 
L 387.519214 243.976188 
L 389.712826 252.833301 
L 391.906437 246.882578 
L 394.100049 234.980417 
L 396.293661 241.547579 
L 398.487273 249.425388 
L 398.487273 249.425388 
" clip-path="url(#p02e170b378)" style="fill: none; stroke: #0303fc; stroke-width: 1.5; stroke-linecap: square"/>
   </g>
   <g id="line2d_18">
    <path d="M 73.832727 248.479028 
L 76.026339 254.589257 
L 78.219951 259.763481 
L 80.413563 261.511258 
L 82.607174 265.28046 
L 84.800786 264.298078 
L 86.994398 262.48515 
L 89.18801 255.571161 
L 91.381622 258.050186 
L 93.575233 262.088613 
L 95.768845 265.725183 
L 97.962457 266.667205 
L 100.156069 265.093927 
L 102.349681 259.617737 
L 106.736904 244.51389 
L 108.930516 243.80658 
L 111.124128 243.445116 
L 113.31774 235.494121 
L 115.511351 240.597749 
L 117.704963 245.276542 
L 119.898575 246.70293 
L 122.092187 244.063329 
L 124.285799 233.223377 
L 126.47941 237.538278 
L 128.673022 234.409511 
L 130.866634 233.641312 
L 135.253857 215.84317 
L 137.447469 204.407938 
L 139.641081 192.329898 
L 141.834693 176.215538 
L 144.028305 167.53271 
L 146.221916 173.05568 
L 148.415528 182.289419 
L 150.60914 184.314102 
L 152.802752 184.842316 
L 159.383587 216.04989 
L 161.577199 206.493285 
L 163.770811 198.16349 
L 165.964423 204.515277 
L 168.158034 207.345107 
L 170.351646 196.383603 
L 172.545258 193.307757 
L 174.73887 198.367808 
L 176.932482 192.11851 
L 179.126093 175.518972 
L 181.319705 170.268642 
L 183.513317 168.764927 
L 185.706929 161.832055 
L 187.900541 152.675241 
L 190.094152 129.763122 
L 192.287764 129.880203 
L 194.481376 159.671738 
L 196.674988 166.39059 
L 198.8686 155.71321 
L 201.062211 160.165591 
L 203.255823 146.667971 
L 205.449435 147.623721 
L 207.643047 166.123083 
L 209.836658 187.327459 
L 212.03027 195.305276 
L 214.223882 202.339933 
L 216.417494 200.205906 
L 218.611106 201.999732 
L 220.804717 196.655803 
L 222.998329 192.495281 
L 225.191941 197.341136 
L 227.385553 209.460116 
L 229.579165 217.714286 
L 231.772776 216.989781 
L 233.966388 221.862978 
L 236.16 214.62715 
L 238.353612 216.188587 
L 240.547224 207.454804 
L 242.740835 202.858057 
L 244.934447 191.288571 
L 247.128059 172.148819 
L 249.321671 150.611659 
L 251.515283 135.298108 
L 253.708894 139.59834 
L 255.902506 155.577989 
L 258.096118 167.966117 
L 260.28973 187.055819 
L 262.483342 204.226756 
L 264.676953 204.363883 
L 266.870565 207.217472 
L 269.064177 219.406112 
L 271.257789 226.893784 
L 273.4514 219.298572 
L 275.645012 219.075286 
L 277.838624 230.076826 
L 280.032236 224.014321 
L 282.225848 212.434247 
L 284.419459 213.698864 
L 286.613071 211.027232 
L 288.806683 209.317496 
L 291.000295 225.487556 
L 293.193907 224.312399 
L 295.387518 235.967845 
L 297.58113 245.335021 
L 299.774742 251.823109 
L 301.968354 250.805915 
L 304.161966 253.361481 
L 306.355577 246.444414 
L 308.549189 238.022822 
L 310.742801 222.3821 
L 312.936413 214.159155 
L 315.130025 204.510896 
L 317.323636 192.241928 
L 319.517248 183.003365 
L 321.71086 188.901386 
L 323.904472 192.830495 
L 326.098084 211.461647 
L 328.291695 220.691887 
L 330.485307 227.637363 
L 332.678919 227.073151 
L 334.872531 231.913782 
L 337.066143 239.371557 
L 339.259754 245.83029 
L 341.453366 244.830967 
L 343.646978 246.166917 
L 345.84059 251.858627 
L 348.034201 251.854696 
L 350.227813 245.904469 
L 354.615037 247.720948 
L 356.808649 251.011267 
L 359.00226 254.940549 
L 361.195872 259.147487 
L 363.389484 262.868028 
L 365.583096 262.130069 
L 367.776708 262.124787 
L 369.970319 252.906455 
L 372.163931 245.338132 
L 374.357543 232.839306 
L 376.551155 223.710232 
L 378.744767 217.766693 
L 380.938378 231.622865 
L 383.13199 237.713952 
L 385.325602 223.752505 
L 387.519214 223.704953 
L 389.712826 236.003667 
L 391.906437 231.401189 
L 394.100049 218.042465 
L 396.293661 221.811913 
L 398.487273 232.806726 
L 398.487273 232.806726 
" clip-path="url(#p02e170b378)" style="fill: none; stroke: #eb8c34; stroke-width: 1.5; stroke-linecap: square"/>
   </g>
   <g id="line2d_19"/>
   <g id="line2d_20"/>
   <g id="line2d_21"/>
   <g id="patch_3">
    <path d="M 57.6 307.584 
L 57.6 41.472 
" style="fill: none; stroke: #000000; stroke-width: 0.8; stroke-linejoin: miter; stroke-linecap: square"/>
   </g>
   <g id="patch_4">
    <path d="M 414.72 307.584 
L 414.72 41.472 
" style="fill: none; stroke: #000000; stroke-width: 0.8; stroke-linejoin: miter; stroke-linecap: square"/>
   </g>
   <g id="patch_5">
    <path d="M 57.6 307.584 
L 414.72 307.584 
" style="fill: none; stroke: #000000; stroke-width: 0.8; stroke-linejoin: miter; stroke-linecap: square"/>
   </g>
   <g id="patch_6">
    <path d="M 57.6 41.472 
L 414.72 41.472 
" style="fill: none; stroke: #000000; stroke-width: 0.8; stroke-linejoin: miter; stroke-linecap: square"/>
   </g>
   <g id="legend_1">
    <g id="patch_7">
     <path d="M 297.795 108.1845 
L 407.72 108.1845 
Q 409.72 108.1845 409.72 106.1845 
L 409.72 48.472 
Q 409.72 46.472 407.72 46.472 
L 297.795 46.472 
Q 295.795 46.472 295.795 48.472 
L 295.795 106.1845 
Q 295.795 108.1845 297.795 108.1845 
z
" style="fill: #ffffff; opacity: 0.8; stroke: #cccccc; stroke-linejoin: miter"/>
    </g>
    <g id="text_18">
     <!-- condition -->
     <g transform="translate(329.639531 58.070438) scale(0.1 -0.1)">
      <defs>
       <path id="DejaVuSans-63" d="M 3122 3366 
L 3122 2828 
Q 2878 2963 2633 3030 
Q 2388 3097 2138 3097 
Q 1578 3097 1268 2742 
Q 959 2388 959 1747 
Q 959 1106 1268 751 
Q 1578 397 2138 397 
Q 2388 397 2633 464 
Q 2878 531 3122 666 
L 3122 134 
Q 2881 22 2623 -34 
Q 2366 -91 2075 -91 
Q 1284 -91 818 406 
Q 353 903 353 1747 
Q 353 2603 823 3093 
Q 1294 3584 2113 3584 
Q 2378 3584 2631 3529 
Q 2884 3475 3122 3366 
z
" transform="scale(0.015625)"/>
       <path id="DejaVuSans-6f" d="M 1959 3097 
Q 1497 3097 1228 2736 
Q 959 2375 959 1747 
Q 959 1119 1226 758 
Q 1494 397 1959 397 
Q 2419 397 2687 759 
Q 2956 1122 2956 1747 
Q 2956 2369 2687 2733 
Q 2419 3097 1959 3097 
z
M 1959 3584 
Q 2709 3584 3137 3096 
Q 3566 2609 3566 1747 
Q 3566 888 3137 398 
Q 2709 -91 1959 -91 
Q 1206 -91 779 398 
Q 353 888 353 1747 
Q 353 2609 779 3096 
Q 1206 3584 1959 3584 
z
" transform="scale(0.015625)"/>
       <path id="DejaVuSans-6e" d="M 3513 2113 
L 3513 0 
L 2938 0 
L 2938 2094 
Q 2938 2591 2744 2837 
Q 2550 3084 2163 3084 
Q 1697 3084 1428 2787 
Q 1159 2491 1159 1978 
L 1159 0 
L 581 0 
L 581 3500 
L 1159 3500 
L 1159 2956 
Q 1366 3272 1645 3428 
Q 1925 3584 2291 3584 
Q 2894 3584 3203 3211 
Q 3513 2838 3513 2113 
z
" transform="scale(0.015625)"/>
       <path id="DejaVuSans-64" d="M 2906 2969 
L 2906 4863 
L 3481 4863 
L 3481 0 
L 2906 0 
L 2906 525 
Q 2725 213 2448 61 
Q 2172 -91 1784 -91 
Q 1150 -91 751 415 
Q 353 922 353 1747 
Q 353 2572 751 3078 
Q 1150 3584 1784 3584 
Q 2172 3584 2448 3432 
Q 2725 3281 2906 2969 
z
M 947 1747 
Q 947 1113 1208 752 
Q 1469 391 1925 391 
Q 2381 391 2643 752 
Q 2906 1113 2906 1747 
Q 2906 2381 2643 2742 
Q 2381 3103 1925 3103 
Q 1469 3103 1208 2742 
Q 947 2381 947 1747 
z
" transform="scale(0.015625)"/>
       <path id="DejaVuSans-69" d="M 603 3500 
L 1178 3500 
L 1178 0 
L 603 0 
L 603 3500 
z
M 603 4863 
L 1178 4863 
L 1178 4134 
L 603 4134 
L 603 4863 
z
" transform="scale(0.015625)"/>
       <path id="DejaVuSans-74" d="M 1172 4494 
L 1172 3500 
L 2356 3500 
L 2356 3053 
L 1172 3053 
L 1172 1153 
Q 1172 725 1289 603 
Q 1406 481 1766 481 
L 2356 481 
L 2356 0 
L 1766 0 
Q 1100 0 847 248 
Q 594 497 594 1153 
L 594 3053 
L 172 3053 
L 172 3500 
L 594 3500 
L 594 4494 
L 1172 4494 
z
" transform="scale(0.015625)"/>
      </defs>
      <use xlink:href="#DejaVuSans-63"/>
      <use xlink:href="#DejaVuSans-6f" transform="translate(54.980469 0)"/>
      <use xlink:href="#DejaVuSans-6e" transform="translate(116.162109 0)"/>
      <use xlink:href="#DejaVuSans-64" transform="translate(179.541016 0)"/>
      <use xlink:href="#DejaVuSans-69" transform="translate(243.017578 0)"/>
      <use xlink:href="#DejaVuSans-74" transform="translate(270.800781 0)"/>
      <use xlink:href="#DejaVuSans-69" transform="translate(310.009766 0)"/>
      <use xlink:href="#DejaVuSans-6f" transform="translate(337.792969 0)"/>
      <use xlink:href="#DejaVuSans-6e" transform="translate(398.974609 0)"/>
     </g>
    </g>
    <g id="line2d_22">
     <path d="M 299.795 69.248563 
L 309.795 69.248563 
L 319.795 69.248563 
" style="fill: none; stroke: #fc030b; stroke-width: 1.5; stroke-linecap: square"/>
    </g>
    <g id="text_19">
     <!-- insertions (9) -->
     <g transform="translate(327.795 72.748563) scale(0.1 -0.1)">
      <defs>
       <path id="DejaVuSans-73" d="M 2834 3397 
L 2834 2853 
Q 2591 2978 2328 3040 
Q 2066 3103 1784 3103 
Q 1356 3103 1142 2972 
Q 928 2841 928 2578 
Q 928 2378 1081 2264 
Q 1234 2150 1697 2047 
L 1894 2003 
Q 2506 1872 2764 1633 
Q 3022 1394 3022 966 
Q 3022 478 2636 193 
Q 2250 -91 1575 -91 
Q 1294 -91 989 -36 
Q 684 19 347 128 
L 347 722 
Q 666 556 975 473 
Q 1284 391 1588 391 
Q 1994 391 2212 530 
Q 2431 669 2431 922 
Q 2431 1156 2273 1281 
Q 2116 1406 1581 1522 
L 1381 1569 
Q 847 1681 609 1914 
Q 372 2147 372 2553 
Q 372 3047 722 3315 
Q 1072 3584 1716 3584 
Q 2034 3584 2315 3537 
Q 2597 3491 2834 3397 
z
" transform="scale(0.015625)"/>
       <path id="DejaVuSans-65" d="M 3597 1894 
L 3597 1613 
L 953 1613 
Q 991 1019 1311 708 
Q 1631 397 2203 397 
Q 2534 397 2845 478 
Q 3156 559 3463 722 
L 3463 178 
Q 3153 47 2828 -22 
Q 2503 -91 2169 -91 
Q 1331 -91 842 396 
Q 353 884 353 1716 
Q 353 2575 817 3079 
Q 1281 3584 2069 3584 
Q 2775 3584 3186 3129 
Q 3597 2675 3597 1894 
z
M 3022 2063 
Q 3016 2534 2758 2815 
Q 2500 3097 2075 3097 
Q 1594 3097 1305 2825 
Q 1016 2553 972 2059 
L 3022 2063 
z
" transform="scale(0.015625)"/>
       <path id="DejaVuSans-72" d="M 2631 2963 
Q 2534 3019 2420 3045 
Q 2306 3072 2169 3072 
Q 1681 3072 1420 2755 
Q 1159 2438 1159 1844 
L 1159 0 
L 581 0 
L 581 3500 
L 1159 3500 
L 1159 2956 
Q 1341 3275 1631 3429 
Q 1922 3584 2338 3584 
Q 2397 3584 2469 3576 
Q 2541 3569 2628 3553 
L 2631 2963 
z
" transform="scale(0.015625)"/>
       <path id="DejaVuSans-20" transform="scale(0.015625)"/>
       <path id="DejaVuSans-28" d="M 1984 4856 
Q 1566 4138 1362 3434 
Q 1159 2731 1159 2009 
Q 1159 1288 1364 580 
Q 1569 -128 1984 -844 
L 1484 -844 
Q 1016 -109 783 600 
Q 550 1309 550 2009 
Q 550 2706 781 3412 
Q 1013 4119 1484 4856 
L 1984 4856 
z
" transform="scale(0.015625)"/>
       <path id="DejaVuSans-39" d="M 703 97 
L 703 672 
Q 941 559 1184 500 
Q 1428 441 1663 441 
Q 2288 441 2617 861 
Q 2947 1281 2994 2138 
Q 2813 1869 2534 1725 
Q 2256 1581 1919 1581 
Q 1219 1581 811 2004 
Q 403 2428 403 3163 
Q 403 3881 828 4315 
Q 1253 4750 1959 4750 
Q 2769 4750 3195 4129 
Q 3622 3509 3622 2328 
Q 3622 1225 3098 567 
Q 2575 -91 1691 -91 
Q 1453 -91 1209 -44 
Q 966 3 703 97 
z
M 1959 2075 
Q 2384 2075 2632 2365 
Q 2881 2656 2881 3163 
Q 2881 3666 2632 3958 
Q 2384 4250 1959 4250 
Q 1534 4250 1286 3958 
Q 1038 3666 1038 3163 
Q 1038 2656 1286 2365 
Q 1534 2075 1959 2075 
z
" transform="scale(0.015625)"/>
       <path id="DejaVuSans-29" d="M 513 4856 
L 1013 4856 
Q 1481 4119 1714 3412 
Q 1947 2706 1947 2009 
Q 1947 1309 1714 600 
Q 1481 -109 1013 -844 
L 513 -844 
Q 928 -128 1133 580 
Q 1338 1288 1338 2009 
Q 1338 2731 1133 3434 
Q 928 4138 513 4856 
z
" transform="scale(0.015625)"/>
      </defs>
      <use xlink:href="#DejaVuSans-69"/>
      <use xlink:href="#DejaVuSans-6e" transform="translate(27.783203 0)"/>
      <use xlink:href="#DejaVuSans-73" transform="translate(91.162109 0)"/>
      <use xlink:href="#DejaVuSans-65" transform="translate(143.261719 0)"/>
      <use xlink:href="#DejaVuSans-72" transform="translate(204.785156 0)"/>
      <use xlink:href="#DejaVuSans-74" transform="translate(245.898438 0)"/>
      <use xlink:href="#DejaVuSans-69" transform="translate(285.107422 0)"/>
      <use xlink:href="#DejaVuSans-6f" transform="translate(312.890625 0)"/>
      <use xlink:href="#DejaVuSans-6e" transform="translate(374.072266 0)"/>
      <use xlink:href="#DejaVuSans-73" transform="translate(437.451172 0)"/>
      <use xlink:href="#DejaVuSans-20" transform="translate(489.550781 0)"/>
      <use xlink:href="#DejaVuSans-28" transform="translate(521.337891 0)"/>
      <use xlink:href="#DejaVuSans-39" transform="translate(560.351562 0)"/>
      <use xlink:href="#DejaVuSans-29" transform="translate(623.974609 0)"/>
     </g>
    </g>
    <g id="line2d_23">
     <path d="M 299.795 83.926688 
L 309.795 83.926688 
L 319.795 83.926688 
" style="fill: none; stroke: #0303fc; stroke-width: 1.5; stroke-linecap: square"/>
    </g>
    <g id="text_20">
     <!-- WT (16) -->
     <g transform="translate(327.795 87.426688) scale(0.1 -0.1)">
      <defs>
       <path id="DejaVuSans-57" d="M 213 4666 
L 850 4666 
L 1831 722 
L 2809 4666 
L 3519 4666 
L 4500 722 
L 5478 4666 
L 6119 4666 
L 4947 0 
L 4153 0 
L 3169 4050 
L 2175 0 
L 1381 0 
L 213 4666 
z
" transform="scale(0.015625)"/>
       <path id="DejaVuSans-54" d="M -19 4666 
L 3928 4666 
L 3928 4134 
L 2272 4134 
L 2272 0 
L 1638 0 
L 1638 4134 
L -19 4134 
L -19 4666 
z
" transform="scale(0.015625)"/>
      </defs>
      <use xlink:href="#DejaVuSans-57"/>
      <use xlink:href="#DejaVuSans-54" transform="translate(98.876953 0)"/>
      <use xlink:href="#DejaVuSans-20" transform="translate(159.960938 0)"/>
      <use xlink:href="#DejaVuSans-28" transform="translate(191.748047 0)"/>
      <use xlink:href="#DejaVuSans-31" transform="translate(230.761719 0)"/>
      <use xlink:href="#DejaVuSans-36" transform="translate(294.384766 0)"/>
      <use xlink:href="#DejaVuSans-29" transform="translate(358.007812 0)"/>
     </g>
    </g>
    <g id="line2d_24">
     <path d="M 299.795 98.604813 
L 309.795 98.604813 
L 319.795 98.604813 
" style="fill: none; stroke: #eb8c34; stroke-width: 1.5; stroke-linecap: square"/>
    </g>
    <g id="text_21">
     <!-- duplications (4) -->
     <g transform="translate(327.795 102.104813) scale(0.1 -0.1)">
      <defs>
       <path id="DejaVuSans-75" d="M 544 1381 
L 544 3500 
L 1119 3500 
L 1119 1403 
Q 1119 906 1312 657 
Q 1506 409 1894 409 
Q 2359 409 2629 706 
Q 2900 1003 2900 1516 
L 2900 3500 
L 3475 3500 
L 3475 0 
L 2900 0 
L 2900 538 
Q 2691 219 2414 64 
Q 2138 -91 1772 -91 
Q 1169 -91 856 284 
Q 544 659 544 1381 
z
M 1991 3584 
L 1991 3584 
z
" transform="scale(0.015625)"/>
       <path id="DejaVuSans-70" d="M 1159 525 
L 1159 -1331 
L 581 -1331 
L 581 3500 
L 1159 3500 
L 1159 2969 
Q 1341 3281 1617 3432 
Q 1894 3584 2278 3584 
Q 2916 3584 3314 3078 
Q 3713 2572 3713 1747 
Q 3713 922 3314 415 
Q 2916 -91 2278 -91 
Q 1894 -91 1617 61 
Q 1341 213 1159 525 
z
M 3116 1747 
Q 3116 2381 2855 2742 
Q 2594 3103 2138 3103 
Q 1681 3103 1420 2742 
Q 1159 2381 1159 1747 
Q 1159 1113 1420 752 
Q 1681 391 2138 391 
Q 2594 391 2855 752 
Q 3116 1113 3116 1747 
z
" transform="scale(0.015625)"/>
       <path id="DejaVuSans-6c" d="M 603 4863 
L 1178 4863 
L 1178 0 
L 603 0 
L 603 4863 
z
" transform="scale(0.015625)"/>
       <path id="DejaVuSans-61" d="M 2194 1759 
Q 1497 1759 1228 1600 
Q 959 1441 959 1056 
Q 959 750 1161 570 
Q 1363 391 1709 391 
Q 2188 391 2477 730 
Q 2766 1069 2766 1631 
L 2766 1759 
L 2194 1759 
z
M 3341 1997 
L 3341 0 
L 2766 0 
L 2766 531 
Q 2569 213 2275 61 
Q 1981 -91 1556 -91 
Q 1019 -91 701 211 
Q 384 513 384 1019 
Q 384 1609 779 1909 
Q 1175 2209 1959 2209 
L 2766 2209 
L 2766 2266 
Q 2766 2663 2505 2880 
Q 2244 3097 1772 3097 
Q 1472 3097 1187 3025 
Q 903 2953 641 2809 
L 641 3341 
Q 956 3463 1253 3523 
Q 1550 3584 1831 3584 
Q 2591 3584 2966 3190 
Q 3341 2797 3341 1997 
z
" transform="scale(0.015625)"/>
      </defs>
      <use xlink:href="#DejaVuSans-64"/>
      <use xlink:href="#DejaVuSans-75" transform="translate(63.476562 0)"/>
      <use xlink:href="#DejaVuSans-70" transform="translate(126.855469 0)"/>
      <use xlink:href="#DejaVuSans-6c" transform="translate(190.332031 0)"/>
      <use xlink:href="#DejaVuSans-69" transform="translate(218.115234 0)"/>
      <use xlink:href="#DejaVuSans-63" transform="translate(245.898438 0)"/>
      <use xlink:href="#DejaVuSans-61" transform="translate(300.878906 0)"/>
      <use xlink:href="#DejaVuSans-74" transform="translate(362.158203 0)"/>
      <use xlink:href="#DejaVuSans-69" transform="translate(401.367188 0)"/>
      <use xlink:href="#DejaVuSans-6f" transform="translate(429.150391 0)"/>
      <use xlink:href="#DejaVuSans-6e" transform="translate(490.332031 0)"/>
      <use xlink:href="#DejaVuSans-73" transform="translate(553.710938 0)"/>
      <use xlink:href="#DejaVuSans-20" transform="translate(605.810547 0)"/>
      <use xlink:href="#DejaVuSans-28" transform="translate(637.597656 0)"/>
      <use xlink:href="#DejaVuSans-34" transform="translate(676.611328 0)"/>
      <use xlink:href="#DejaVuSans-29" transform="translate(740.234375 0)"/>
     </g>
    </g>
   </g>
  </g>
  <g id="text_22">
   <!-- RMSF Macro Domain (1020 ns) -->
   <g transform="translate(126.61875 16.030125) scale(0.12 -0.12)">
    <defs>
     <path id="DejaVuSans-Bold-46" d="M 588 4666 
L 3834 4666 
L 3834 3756 
L 1791 3756 
L 1791 2888 
L 3713 2888 
L 3713 1978 
L 1791 1978 
L 1791 0 
L 588 0 
L 588 4666 
z
" transform="scale(0.015625)"/>
     <path id="DejaVuSans-Bold-61" d="M 2106 1575 
Q 1756 1575 1579 1456 
Q 1403 1338 1403 1106 
Q 1403 894 1545 773 
Q 1688 653 1941 653 
Q 2256 653 2472 879 
Q 2688 1106 2688 1447 
L 2688 1575 
L 2106 1575 
z
M 3816 1997 
L 3816 0 
L 2688 0 
L 2688 519 
Q 2463 200 2181 54 
Q 1900 -91 1497 -91 
Q 953 -91 614 226 
Q 275 544 275 1050 
Q 275 1666 698 1953 
Q 1122 2241 2028 2241 
L 2688 2241 
L 2688 2328 
Q 2688 2594 2478 2717 
Q 2269 2841 1825 2841 
Q 1466 2841 1156 2769 
Q 847 2697 581 2553 
L 581 3406 
Q 941 3494 1303 3539 
Q 1666 3584 2028 3584 
Q 2975 3584 3395 3211 
Q 3816 2838 3816 1997 
z
" transform="scale(0.015625)"/>
     <path id="DejaVuSans-Bold-63" d="M 3366 3391 
L 3366 2478 
Q 3138 2634 2908 2709 
Q 2678 2784 2431 2784 
Q 1963 2784 1702 2511 
Q 1441 2238 1441 1747 
Q 1441 1256 1702 982 
Q 1963 709 2431 709 
Q 2694 709 2930 787 
Q 3166 866 3366 1019 
L 3366 103 
Q 3103 6 2833 -42 
Q 2563 -91 2291 -91 
Q 1344 -91 809 395 
Q 275 881 275 1747 
Q 275 2613 809 3098 
Q 1344 3584 2291 3584 
Q 2566 3584 2833 3536 
Q 3100 3488 3366 3391 
z
" transform="scale(0.015625)"/>
     <path id="DejaVuSans-Bold-6f" d="M 2203 2784 
Q 1831 2784 1636 2517 
Q 1441 2250 1441 1747 
Q 1441 1244 1636 976 
Q 1831 709 2203 709 
Q 2569 709 2762 976 
Q 2956 1244 2956 1747 
Q 2956 2250 2762 2517 
Q 2569 2784 2203 2784 
z
M 2203 3584 
Q 3106 3584 3614 3096 
Q 4122 2609 4122 1747 
Q 4122 884 3614 396 
Q 3106 -91 2203 -91 
Q 1297 -91 786 396 
Q 275 884 275 1747 
Q 275 2609 786 3096 
Q 1297 3584 2203 3584 
z
" transform="scale(0.015625)"/>
     <path id="DejaVuSans-Bold-6d" d="M 3781 2919 
Q 3994 3244 4286 3414 
Q 4578 3584 4928 3584 
Q 5531 3584 5847 3212 
Q 6163 2841 6163 2131 
L 6163 0 
L 5038 0 
L 5038 1825 
Q 5041 1866 5042 1909 
Q 5044 1953 5044 2034 
Q 5044 2406 4934 2573 
Q 4825 2741 4581 2741 
Q 4263 2741 4089 2478 
Q 3916 2216 3909 1719 
L 3909 0 
L 2784 0 
L 2784 1825 
Q 2784 2406 2684 2573 
Q 2584 2741 2328 2741 
Q 2006 2741 1831 2477 
Q 1656 2213 1656 1722 
L 1656 0 
L 531 0 
L 531 3500 
L 1656 3500 
L 1656 2988 
Q 1863 3284 2130 3434 
Q 2397 3584 2719 3584 
Q 3081 3584 3359 3409 
Q 3638 3234 3781 2919 
z
" transform="scale(0.015625)"/>
     <path id="DejaVuSans-Bold-6e" d="M 4056 2131 
L 4056 0 
L 2931 0 
L 2931 347 
L 2931 1631 
Q 2931 2084 2911 2256 
Q 2891 2428 2841 2509 
Q 2775 2619 2662 2680 
Q 2550 2741 2406 2741 
Q 2056 2741 1856 2470 
Q 1656 2200 1656 1722 
L 1656 0 
L 538 0 
L 538 3500 
L 1656 3500 
L 1656 2988 
Q 1909 3294 2193 3439 
Q 2478 3584 2822 3584 
Q 3428 3584 3742 3212 
Q 4056 2841 4056 2131 
z
" transform="scale(0.015625)"/>
     <path id="DejaVuSans-Bold-31" d="M 750 831 
L 1813 831 
L 1813 3847 
L 722 3622 
L 722 4441 
L 1806 4666 
L 2950 4666 
L 2950 831 
L 4013 831 
L 4013 0 
L 750 0 
L 750 831 
z
" transform="scale(0.015625)"/>
     <path id="DejaVuSans-Bold-30" d="M 2944 2338 
Q 2944 3213 2780 3570 
Q 2616 3928 2228 3928 
Q 1841 3928 1675 3570 
Q 1509 3213 1509 2338 
Q 1509 1453 1675 1090 
Q 1841 728 2228 728 
Q 2613 728 2778 1090 
Q 2944 1453 2944 2338 
z
M 4147 2328 
Q 4147 1169 3647 539 
Q 3147 -91 2228 -91 
Q 1306 -91 806 539 
Q 306 1169 306 2328 
Q 306 3491 806 4120 
Q 1306 4750 2228 4750 
Q 3147 4750 3647 4120 
Q 4147 3491 4147 2328 
z
" transform="scale(0.015625)"/>
     <path id="DejaVuSans-Bold-32" d="M 1844 884 
L 3897 884 
L 3897 0 
L 506 0 
L 506 884 
L 2209 2388 
Q 2438 2594 2547 2791 
Q 2656 2988 2656 3200 
Q 2656 3528 2436 3728 
Q 2216 3928 1850 3928 
Q 1569 3928 1234 3808 
Q 900 3688 519 3450 
L 519 4475 
Q 925 4609 1322 4679 
Q 1719 4750 2100 4750 
Q 2938 4750 3402 4381 
Q 3866 4013 3866 3353 
Q 3866 2972 3669 2642 
Q 3472 2313 2841 1759 
L 1844 884 
z
" transform="scale(0.015625)"/>
    </defs>
    <use xlink:href="#DejaVuSans-Bold-52"/>
    <use xlink:href="#DejaVuSans-Bold-4d" transform="translate(77.001953 0)"/>
    <use xlink:href="#DejaVuSans-Bold-53" transform="translate(176.513672 0)"/>
    <use xlink:href="#DejaVuSans-Bold-46" transform="translate(248.535156 0)"/>
    <use xlink:href="#DejaVuSans-Bold-20" transform="translate(316.845703 0)"/>
    <use xlink:href="#DejaVuSans-Bold-4d" transform="translate(351.660156 0)"/>
    <use xlink:href="#DejaVuSans-Bold-61" transform="translate(451.171875 0)"/>
    <use xlink:href="#DejaVuSans-Bold-63" transform="translate(518.652344 0)"/>
    <use xlink:href="#DejaVuSans-Bold-72" transform="translate(577.929688 0)"/>
    <use xlink:href="#DejaVuSans-Bold-6f" transform="translate(627.246094 0)"/>
    <use xlink:href="#DejaVuSans-Bold-20" transform="translate(695.947266 0)"/>
    <use xlink:href="#DejaVuSans-Bold-44" transform="translate(730.761719 0)"/>
    <use xlink:href="#DejaVuSans-Bold-6f" transform="translate(813.769531 0)"/>
    <use xlink:href="#DejaVuSans-Bold-6d" transform="translate(882.470703 0)"/>
    <use xlink:href="#DejaVuSans-Bold-61" transform="translate(986.669922 0)"/>
    <use xlink:href="#DejaVuSans-Bold-69" transform="translate(1054.150391 0)"/>
    <use xlink:href="#DejaVuSans-Bold-6e" transform="translate(1088.427734 0)"/>
    <use xlink:href="#DejaVuSans-Bold-20" transform="translate(1159.619141 0)"/>
    <use xlink:href="#DejaVuSans-Bold-28" transform="translate(1194.433594 0)"/>
    <use xlink:href="#DejaVuSans-Bold-31" transform="translate(1240.136719 0)"/>
    <use xlink:href="#DejaVuSans-Bold-30" transform="translate(1309.716797 0)"/>
    <use xlink:href="#DejaVuSans-Bold-32" transform="translate(1379.296875 0)"/>
    <use xlink:href="#DejaVuSans-Bold-30" transform="translate(1448.876953 0)"/>
    <use xlink:href="#DejaVuSans-Bold-20" transform="translate(1518.457031 0)"/>
    <use xlink:href="#DejaVuSans-Bold-6e" transform="translate(1553.271484 0)"/>
    <use xlink:href="#DejaVuSans-Bold-73" transform="translate(1624.462891 0)"/>
    <use xlink:href="#DejaVuSans-Bold-29" transform="translate(1683.984375 0)"/>
   </g>
  </g>
 </g>
 <defs>
  <clipPath id="p02e170b378">
   <rect x="57.6" y="41.472" width="357.12" height="266.112"/>
  </clipPath>
 </defs>
</svg>
